<svg xmlns="http://www.w3.org/2000/svg" viewBox="0 0 200 200">
  <!-- Background -->
  <circle cx="100" cy="100" r="100" fill="#9E9E9E" opacity="0.2"/>
  
  <!-- Islamic pattern background -->
  <circle cx="100" cy="100" r="80" fill="none" stroke="#607D8B" stroke-width="2"/>
  <path d="M100,20 L100,180 M20,100 L180,100" stroke="#607D8B" stroke-width="1" opacity="0.5"/>
  <path d="M29,29 L171,171 M29,171 L171,29" stroke="#607D8B" stroke-width="1" opacity="0.5"/>
  
  <!-- Arabic-style text (simplified representation) -->
  <path d="M60,90 C60,80 80,70 100,85 C120,70 140,80 140,90" fill="none" stroke="#212121" stroke-width="2"/>
  <path d="M70,110 C70,100 90,90 110,105 C130,90 150,100 150,110" fill="none" stroke="#212121" stroke-width="2"/>
  
  <!-- Person silhouette -->
  <circle cx="100" cy="80" r="25" fill="#424242" opacity="0.7"/>
  <path d="M60 160 C60 120 140 120 140 160" fill="#424242" opacity="0.7"/>
</svg>
